<svg width="453" height="93" viewBox="0 0 453 93" fill="none" xmlns="http://www.w3.org/2000/svg">
<rect x="433" y="73" width="20" height="20" fill="#FFF9E9"/>
<path d="M236 92.5V0H314V30.5H270V33H314V59.5H270V62H314V92.5H236Z" fill="#FFF9E9"/>
<path d="M0 0V92.5H35V70L26.5 47H28.5L41.5 81H74L87 47H89L80 70V92.5H115V0H76.5L57.5 43L38.5 0H0Z" fill="#FFF9E9"/>
<path d="M117.5 0V92.5H152.5V70L143.5 47H145.5L159 81H191.5L204.5 47H206.5L197.5 70V92.5H232.5V0H194L175 43L156 0H117.5Z" fill="#FFF9E9"/>
<path d="M347 46.5L319.5 0H360L373.5 24L387 0H427L400 46.5L429 92.5H389L367.5 59H365.5L372.5 70L358 92.5H317.5L347 46.5Z" fill="#FFDA34"/>
</svg>
